Coordinates
version=1
nRows=15
nColumns=34
inDegrees=no

Units are S.I. units (second, meters, Newtons, ...)
If the header above contains a line with 'inDegrees', this indicates whether rotational values are in degrees (yes) or radians (no).

endheader
time	pelvis_tilt	pelvis_list	pelvis_rotation	pelvis_tx	pelvis_ty	pelvis_tz	hip_flexion_r	hip_adduction_r	hip_rotation_r	knee_angle_r	ankle_angle_r	subtalar_angle_r	mtp_angle_r	hip_flexion_l	hip_adduction_l	hip_rotation_l	knee_angle_l	ankle_angle_l	subtalar_angle_l	mtp_angle_l	lumbar_extension	lumbar_bending	lumbar_rotation	arm_flex_r	arm_add_r	arm_rot_r	elbow_flex_r	pro_sup_r	arm_flex_l	arm_add_l	arm_rot_l	elbow_flex_l	pro_sup_l
0.92	0.061024	0.069943	-0.00403959	1.07001	0.972577	-0.198821	0.466708	-0.13894	-0.079843	0.832501	0.0255334	-0.0106865	0.0084883	-0.137791	0.131919	-0.0645236	0.0932435	0.175829	-0.0619099	0.0235288	-0.190108	-0.149211	-0.0640758	0.0743688	-0.163634	0.102685	0.390431	1.64897	0.372085	-0.273976	0.225351	0.52622	1.83059
0.93	0.0613619	0.0644515	-0.00322627	1.0796	0.9721	-0.198551	0.463506	-0.130009	-0.0938161	0.769217	0.0286646	0.00853936	0.00849162	-0.155603	0.125931	-0.0613587	0.0821049	0.181004	-0.0569865	0.0235958	-0.189762	-0.143494	-0.0694902	0.0683166	-0.164697	0.0978246	0.39106	1.64459	0.391427	-0.278666	0.226021	0.54187	1.83027
0.94	0.0616776	0.0590529	-0.00298521	1.08925	0.971456	-0.198177	0.458083	-0.120399	-0.107937	0.701666	0.031864	0.0317554	0.00849495	-0.173449	0.119948	-0.0586738	0.0709495	0.186002	-0.0523856	0.0236628	-0.18936	-0.138069	-0.0740588	0.0621542	-0.165597	0.0927026	0.391958	1.63883	0.4099	-0.283205	0.225707	0.557571	1.83047
0.95	0.0620711	0.0536877	-0.00324619	1.09898	0.970658	-0.197701	0.450379	-0.109932	-0.121669	0.630251	0.0352526	0.0588776	0.00849829	-0.19138	0.113905	-0.0564902	0.0599466	0.190917	-0.048012	0.0237298	-0.189045	-0.132854	-0.0778355	0.0559273	-0.166331	0.0874779	0.39303	1.63192	0.42746	-0.287553	0.224356	0.573402	1.83138
0.96	0.0626128	0.048325	-0.00390751	1.10877	0.96972	-0.197131	0.440444	-0.0985287	-0.134357	0.555646	0.0389135	0.0893694	0.00850164	-0.209352	0.107757	-0.0548888	0.0493617	0.19591	-0.0436821	0.0237968	-0.188919	-0.127787	-0.0809052	0.0496816	-0.166898	0.0823072	0.394167	1.62428	0.444062	-0.291673	0.221966	0.58943	1.83309
0.97	0.06333	0.0429778	-0.00484086	1.11865	0.968653	-0.196477	0.428476	-0.0862423	-0.145261	0.47886	0.0428919	0.122225	0.00850499	-0.227223	0.101498	-0.0540047	0.0395376	0.201193	-0.0391333	0.0238638	-0.189031	-0.122848	-0.0833831	0.0434604	-0.167299	0.0773142	0.395251	1.61644	0.459659	-0.295538	0.218593	0.605703	1.83559
0.98	0.0641978	0.0377103	-0.00589851	1.12862	0.967467	-0.195751	0.414842	-0.0732739	-0.153643	0.40127	0.0472034	0.156011	0.00850835	-0.244753	0.0951725	-0.0540089	0.0308667	0.206991	-0.0340515	0.0239307	-0.189365	-0.118066	-0.0854118	0.0373051	-0.167536	0.0725731	0.396162	1.60896	0.474206	-0.299124	0.214347	0.622244	1.83875
0.99	0.0651423	0.0326305	-0.00692177	1.13868	0.966172	-0.194967	0.400082	-0.0599683	-0.158875	0.324621	0.0518462	0.188987	0.00851172	-0.261627	0.0888697	-0.055083	0.0237575	0.213508	-0.0281058	0.0239977	-0.189844	-0.113513	-0.0871547	0.0312578	-0.167611	0.0681094	0.396789	1.6023	0.487654	-0.302409	0.209371	0.639043	1.84234
1	0.0660534	0.0278651	-0.0077519	1.14883	0.964778	-0.19414	0.384875	-0.0467801	-0.160591	0.250967	0.0568129	0.219282	0.00851508	-0.27749	0.0827034	-0.0573971	0.0186026	0.220892	-0.0209777	0.0240646	-0.190351	-0.109286	-0.0887857	0.0253661	-0.167536	0.0639163	0.397032	1.5968	0.499953	-0.30537	0.203812	0.656064	1.84609
1.01	0.0668007	0.0235282	-0.00824306	1.15907	0.963299	-0.193285	0.369993	-0.0342138	-0.158815	0.182552	0.0620917	0.245134	0.00851845	-0.291991	0.0767743	-0.0611	0.0157521	0.229211	-0.0123783	0.0241314	-0.190756	-0.10547	-0.0904762	0.0196871	-0.167334	0.0599761	0.396803	1.59256	0.511049	-0.307971	0.197786	0.673244	1.84971
1.02	0.0672588	0.0196955	-0.00827383	1.16939	0.961753	-0.192417	0.356212	-0.0227412	-0.154058	0.121622	0.0676453	0.265132	0.00852182	-0.304828	0.071124	-0.0663244	0.0154984	0.238452	-0.00204998	0.0241983	-0.190948	-0.102098	-0.0923764	0.0142883	-0.167043	0.0562811	0.396028	1.58952	0.520879	-0.310163	0.191354	0.690506	1.8529
1.03	0.0673428	0.0163686	-0.00775524	1.17978	0.960166	-0.19155	0.344225	-0.0127138	-0.147312	0.0701889	0.0733623	0.278401	0.00852518	-0.31578	0.065692	-0.0732019	0.0180706	0.248534	0.010241	0.0242651	-0.19086	-0.099113	-0.0945992	0.00924459	-0.166715	0.052843	0.394648	1.58745	0.529368	-0.311877	0.184507	0.707763	1.85546
1.04	0.0670323	0.0134427	-0.0066347	1.19024	0.958564	-0.190696	0.33454	-0.00428875	-0.139935	0.0297735	0.0789879	0.284691	0.00852855	-0.324743	0.0602864	-0.0818766	0.0236347	0.259324	0.0247063	0.024332	-0.190486	-0.0963414	-0.0972072	0.00462995	-0.166417	0.0496907	0.392619	1.58605	0.536424	-0.313026	0.177172	0.724926	1.85721
1.05	0.0663813	0.010696	-0.0048935	1.20076	0.956981	-0.189864	0.327391	0.00261514	-0.133425	0.00117375	0.0840581	0.284321	0.00853192	-0.331737	0.0545759	-0.0924974	0.0322922	0.270656	0.041512	0.0243988	-0.189891	-0.093493	-0.100206	0.000505576	-0.166221	0.0468572	0.389919	1.585	0.541946	-0.313514	0.169234	0.741914	1.85807
1.06	0.0655084	0.00781014	-0.00253895	1.21136	0.955447	-0.189058	0.322681	0.0083193	-0.129138	-0.0156849	0.08787	0.278023	0.00853529	-0.336925	0.0481098	-0.105176	0.0440696	0.282322	0.0607149	0.0244655	-0.189207	-0.0901734	-0.103549	-0.0030926	-0.166197	0.0443621	0.386545	1.58402	0.545822	-0.313238	0.160578	0.758645	1.85802
